<svg xmlns="http://www.w3.org/2000/svg" viewBox="0 0 24 24" role="img" aria-labelledby="title">
  <title id="title">Tether USD</title>
  <circle cx="12" cy="12" r="12" fill="#26A17B"/>
  <path fill="#fff" d="M13.45 10.43V8.69h3.98V6.05H6.57v2.64h3.98v1.74c-3.24.15-5.68.79-5.68 1.56s2.44 1.42 5.68 1.57v5.58h2.9v-5.58c3.24-.15 5.68-.79 5.68-1.57s-2.44-1.41-5.68-1.56Zm0 2.65v-.01c-.08.01-.51.04-1.45.04-.75 0-1.28-.02-1.45-.04v.01c-2.88-.13-5.03-.63-5.03-1.23s2.15-1.1 5.03-1.23v1.95c.18.02.73.05 1.47.05.88 0 1.33-.04 1.43-.05v-1.95c2.88.13 5.03.63 5.03 1.23s-2.15 1.1-5.03 1.23Z"/>
</svg>
